<svg width="81" height="81" viewBox="0 0 81 81" fill="none" xmlns="http://www.w3.org/2000/svg">
<path d="M40.5 20.25C37.9968 20.25 35.5499 20.9923 33.4686 22.383C31.3873 23.7737 29.7651 25.7503 28.8072 28.0629C27.8492 30.3755 27.5986 32.9203 28.0869 35.3754C28.5753 37.8304 29.7807 40.0856 31.5507 41.8556C33.3207 43.6256 35.5758 44.831 38.0309 45.3193C40.486 45.8077 43.0307 45.557 45.3433 44.5991C47.656 43.6412 49.6326 42.019 51.0233 39.9377C52.414 37.8564 53.1563 35.4094 53.1563 32.9063C53.1563 29.5496 51.8228 26.3304 49.4493 23.9569C47.0758 21.5834 43.8567 20.25 40.5 20.25ZM40.5 40.5C38.9981 40.5 37.5299 40.0546 36.2811 39.2202C35.0324 38.3858 34.059 37.1998 33.4843 35.8123C32.9095 34.4247 32.7592 32.8978 33.0522 31.4248C33.3452 29.9517 34.0684 28.5987 35.1304 27.5367C36.1924 26.4747 37.5455 25.7514 39.0185 25.4584C40.4916 25.1654 42.0184 25.3158 43.406 25.8905C44.7936 26.4653 45.9796 27.4386 46.814 28.6874C47.6484 29.9362 48.0938 31.4044 48.0938 32.9063C48.0917 34.9196 47.291 36.85 45.8674 38.2736C44.4437 39.6973 42.5134 40.498 40.5 40.5Z" fill="black"/>
<path d="M40.5 5.0625C33.4911 5.0625 26.6397 7.14087 20.812 11.0348C14.9843 14.9287 10.4422 20.4633 7.76003 26.9387C5.07785 33.414 4.37607 40.5393 5.74344 47.4135C7.1108 54.2877 10.4859 60.6021 15.4419 65.5581C20.3979 70.5141 26.7123 73.8892 33.5865 75.2566C40.4607 76.6239 47.586 75.9222 54.0614 73.24C60.5367 70.5578 66.0713 66.0157 69.9652 60.188C73.8591 54.3604 75.9375 47.5089 75.9375 40.5C75.9268 31.1047 72.1898 22.0972 65.5463 15.4537C58.9028 8.81024 49.8953 5.07322 40.5 5.0625V5.0625ZM25.3125 66.7668V63.2812C25.3145 61.2679 26.1152 59.3375 27.5389 57.9139C28.9626 56.4902 30.8929 55.6895 32.9063 55.6875H48.0938C50.1071 55.6895 52.0375 56.4902 53.4611 57.9139C54.8848 59.3375 55.6855 61.2679 55.6875 63.2812V66.7668C51.0785 69.458 45.8372 70.8762 40.5 70.8762C35.1628 70.8762 29.9215 69.458 25.3125 66.7668V66.7668ZM60.7298 63.0939C60.6793 59.7738 59.3266 56.6063 56.963 54.274C54.5995 51.9417 51.4143 50.6313 48.0938 50.625H32.9063C29.5857 50.6313 26.4005 51.9417 24.037 54.274C21.6734 56.6063 20.3207 59.7738 20.2703 63.0939C15.68 58.9952 12.443 53.5989 10.9878 47.6196C9.53255 41.6402 9.92783 35.3599 12.1213 29.6102C14.3147 23.8605 18.2028 18.9127 23.2707 15.4218C28.3387 11.931 34.3474 10.0618 40.5013 10.0618C46.6552 10.0618 52.6639 11.931 57.7318 15.4218C62.7998 18.9127 66.6879 23.8605 68.8813 29.6102C71.0747 35.3599 71.47 41.6402 70.0148 47.6196C68.5596 53.5989 65.3226 58.9952 60.7323 63.0939H60.7298Z" fill="black"/>
</svg>
