<svg width="21" height="21" viewBox="0 0 21 21" fill="none" xmlns="http://www.w3.org/2000/svg">
<path d="M15.75 1.75875L5.25 1.75C4.27875 1.75 3.5 2.52875 3.5 3.5V17.5C3.5 18.4713 4.27875 19.25 5.25 19.25H15.75C16.7213 19.25 17.5 18.4713 17.5 17.5V3.5C17.5 2.52875 16.7213 1.75875 15.75 1.75875ZM15.75 17.5H5.25L5.24125 3.5H15.75V17.5Z" fill="black"/>
<path d="M7 6.125C7.48325 6.125 7.875 5.73325 7.875 5.25C7.875 4.76675 7.48325 4.375 7 4.375C6.51675 4.375 6.125 4.76675 6.125 5.25C6.125 5.73325 6.51675 6.125 7 6.125Z" fill="black"/>
<path d="M9.625 6.125C10.1082 6.125 10.5 5.73325 10.5 5.25C10.5 4.76675 10.1082 4.375 9.625 4.375C9.14175 4.375 8.75 4.76675 8.75 5.25C8.75 5.73325 9.14175 6.125 9.625 6.125Z" fill="black"/>
<path d="M10.5 16.625C12.915 16.625 14.875 14.665 14.875 12.25C14.875 9.835 12.915 7.875 10.5 7.875C8.085 7.875 6.125 9.835 6.125 12.25C6.125 14.665 8.085 16.625 10.5 16.625ZM12.565 10.185C13.7025 11.3225 13.7025 13.1775 12.565 14.315C11.4275 15.4525 9.5725 15.4525 8.435 14.315L12.565 10.185Z" fill="black"/>
</svg>
