<svg width="32" height="32" viewBox="0 0 32 32" fill="none" xmlns="http://www.w3.org/2000/svg">
<path d="M29.338 15.934L21.606 13.155L18.374 9.09701C18.093 8.75341 17.739 8.47669 17.3377 8.28695C16.9364 8.0972 16.4979 7.99918 16.054 8.00001H8.058C7.56897 7.99984 7.08732 8.11931 6.65505 8.34799C6.22278 8.57668 5.85302 8.90763 5.578 9.31201L2.866 13.295C2.30115 14.1239 1.99935 15.1039 2 16.107V24C2 24.2652 2.10536 24.5196 2.29289 24.7071C2.48043 24.8946 2.73478 25 3 25H5.142C5.35954 25.8582 5.85703 26.6194 6.55578 27.1632C7.25452 27.7069 8.11462 28.0021 9 28.0021C9.88538 28.0021 10.7455 27.7069 11.4442 27.1632C12.143 26.6194 12.6405 25.8582 12.858 25H19.142C19.3595 25.8582 19.857 26.6194 20.5558 27.1632C21.2545 27.7069 22.1146 28.0021 23 28.0021C23.8854 28.0021 24.7455 27.7069 25.4442 27.1632C26.143 26.6194 26.6405 25.8582 26.858 25H29C29.2652 25 29.5196 24.8946 29.7071 24.7071C29.8946 24.5196 30 24.2652 30 24V16.875C30 16.6691 29.9364 16.4682 29.8179 16.2998C29.6994 16.1313 29.5318 16.0036 29.338 15.934ZM9 26C8.60444 26 8.21776 25.8827 7.88886 25.6629C7.55996 25.4432 7.30362 25.1308 7.15224 24.7654C7.00087 24.3999 6.96126 23.9978 7.03843 23.6098C7.1156 23.2219 7.30608 22.8655 7.58579 22.5858C7.86549 22.3061 8.22186 22.1156 8.60982 22.0384C8.99778 21.9613 9.39992 22.0009 9.76537 22.1522C10.1308 22.3036 10.4432 22.56 10.6629 22.8889C10.8827 23.2178 11 23.6044 11 24C10.9992 24.5302 10.7882 25.0384 10.4133 25.4133C10.0384 25.7882 9.53019 25.9992 9 26V26ZM23 26C22.6044 26 22.2178 25.8827 21.8889 25.6629C21.56 25.4432 21.3036 25.1308 21.1522 24.7654C21.0009 24.3999 20.9613 23.9978 21.0384 23.6098C21.1156 23.2219 21.3061 22.8655 21.5858 22.5858C21.8655 22.3061 22.2219 22.1156 22.6098 22.0384C22.9978 21.9613 23.3999 22.0009 23.7654 22.1522C24.1308 22.3036 24.4432 22.56 24.6629 22.8889C24.8827 23.2178 25 23.6044 25 24C24.9995 24.5303 24.7886 25.0387 24.4136 25.4136C24.0387 25.7886 23.5303 25.9995 23 26ZM28 23H26.858C26.6405 22.1418 26.143 21.3806 25.4442 20.8368C24.7455 20.2931 23.8854 19.9979 23 19.9979C22.1146 19.9979 21.2545 20.2931 20.5558 20.8368C19.857 21.3806 19.3595 22.1418 19.142 23H12.858C12.6405 22.1418 12.143 21.3806 11.4442 20.8368C10.7455 20.2931 9.88538 19.9979 9 19.9979C8.11462 19.9979 7.25452 20.2931 6.55578 20.8368C5.85703 21.3806 5.35954 22.1418 5.142 23H4V16.107C3.99989 15.5049 4.18109 14.9167 4.52 14.419L7.231 10.438C7.32267 10.3031 7.44596 10.1926 7.5901 10.1163C7.73425 10.04 7.89488 10 8.058 10H16.054C16.1995 9.99943 16.3434 10.0308 16.4754 10.092C16.6074 10.1532 16.7244 10.2426 16.818 10.354L20.218 14.623C20.3336 14.7681 20.4874 14.8783 20.662 14.941L28 17.578V23Z" fill="black"/>
</svg>
