<svg width="26" height="20" viewBox="0 0 26 20" fill="none" xmlns="http://www.w3.org/2000/svg">
<path d="M11.6356 16.25V16.15H11.5356H2.16064C1.68989 16.15 1.23841 15.963 0.90553 15.6301C0.572653 15.2972 0.385645 14.8458 0.385645 14.375V1.875C0.385645 1.40424 0.572653 0.952763 0.90553 0.619885C1.23841 0.287008 1.68989 0.1 2.16064 0.1H23.3106H23.4106C23.8814 0.1 24.3329 0.287008 24.6658 0.619886C24.9986 0.952763 25.1856 1.40424 25.1856 1.875V14.375C25.1856 14.8458 24.9986 15.2972 24.6658 15.6301C24.3329 15.963 23.8814 16.15 23.4106 16.15H14.0356H13.9356V16.25V17.5V17.6H14.0356H20.9106C21.0499 17.6 21.1834 17.6553 21.2819 17.7538C21.3803 17.8522 21.4356 17.9858 21.4356 18.125V19.375C21.4356 19.5142 21.3803 19.6478 21.2819 19.7462C21.1834 19.8447 21.0499 19.9 20.9106 19.9H4.66064C4.52141 19.9 4.38787 19.8447 4.28941 19.7462C4.19096 19.6478 4.13564 19.5142 4.13564 19.375V18.125C4.13564 17.9858 4.19096 17.8522 4.28941 17.7538C4.38787 17.6553 4.52141 17.6 4.66064 17.6H11.5356H11.6356V17.5V16.25ZM22.7856 13.85H22.8856V13.75V2.5V2.4H22.7856H2.78564H2.68564V2.5V13.75V13.85H2.78564H22.7856Z" fill="black" stroke="white" stroke-width="0.2"/>
</svg>
