<svg width="26" height="26" viewBox="0 0 26 26" fill="none" xmlns="http://www.w3.org/2000/svg">
<g clip-path="url(#clip0_11_523)">
<path d="M0 4.33314C0 3.38328 0.377328 2.47233 1.04898 1.80068C1.72062 1.12904 2.63157 0.751709 3.58143 0.751709H21.4886C22.4384 0.751709 23.3494 1.12904 24.021 1.80068C24.6927 2.47233 25.07 3.38328 25.07 4.33314V22.2403C25.07 23.1901 24.6927 24.1011 24.021 24.7727C23.3494 25.4444 22.4384 25.8217 21.4886 25.8217H3.58143C2.63157 25.8217 1.72062 25.4444 1.04898 24.7727C0.377328 24.1011 0 23.1901 0 22.2403V4.33314ZM3.58143 2.54242C3.1065 2.54242 2.65103 2.73109 2.3152 3.06691C1.97938 3.40274 1.79071 3.85821 1.79071 4.33314V22.2403C1.79071 22.7152 1.97938 23.1707 2.3152 23.5065C2.65103 23.8423 3.1065 24.031 3.58143 24.031H21.4886C21.9635 24.031 22.419 23.8423 22.7548 23.5065C23.0906 23.1707 23.2793 22.7152 23.2793 22.2403V4.33314C23.2793 3.85821 23.0906 3.40274 22.7548 3.06691C22.419 2.73109 21.9635 2.54242 21.4886 2.54242H3.58143ZM12.535 6.12385C12.7725 6.12385 13.0002 6.21818 13.1681 6.3861C13.336 6.55401 13.4304 6.78175 13.4304 7.01921V12.3914H18.8025C19.04 12.3914 19.2677 12.4857 19.4356 12.6536C19.6035 12.8215 19.6979 13.0492 19.6979 13.2867C19.6979 13.5242 19.6035 13.7519 19.4356 13.9198C19.2677 14.0877 19.04 14.1821 18.8025 14.1821H13.4304V19.5542C13.4304 19.7917 13.336 20.0194 13.1681 20.1873C13.0002 20.3552 12.7725 20.4496 12.535 20.4496C12.2975 20.4496 12.0698 20.3552 11.9019 20.1873C11.734 20.0194 11.6396 19.7917 11.6396 19.5542V14.1821H6.2675C6.03004 14.1821 5.8023 14.0877 5.63439 13.9198C5.46648 13.7519 5.37214 13.5242 5.37214 13.2867C5.37214 13.0492 5.46648 12.8215 5.63439 12.6536C5.8023 12.4857 6.03004 12.3914 6.2675 12.3914H11.6396V7.01921C11.6396 6.78175 11.734 6.55401 11.9019 6.3861C12.0698 6.21818 12.2975 6.12385 12.535 6.12385Z" fill="#363636"/>
</g>
<defs>
<clipPath id="clip0_11_523">
<rect width="25.07" height="25.07" fill="white" transform="translate(0 0.751709)"/>
</clipPath>
</defs>
</svg>
