<svg width="44" height="44" viewBox="0 0 44 44" fill="none" xmlns="http://www.w3.org/2000/svg">
<path d="M2 1.75171H42" stroke="#1E90FF" stroke-width="3" stroke-linecap="round" stroke-linejoin="round"/>
<path d="M36 1.75171H8C6.89543 1.75171 6 2.64714 6 3.75171V39.7517C6 40.8563 6.89543 41.7517 8 41.7517H36C37.1046 41.7517 38 40.8563 38 39.7517V3.75171C38 2.64714 37.1046 1.75171 36 1.75171Z" stroke="#1E90FF" stroke-width="3" stroke-linejoin="round"/>
<path d="M18 29.7517H26V41.7517H18V29.7517Z" stroke="#1E90FF" stroke-width="3" stroke-linecap="round" stroke-linejoin="round"/>
<path d="M13 9.75171H15" stroke="#1E90FF" stroke-width="3" stroke-linecap="round"/>
<path d="M13 15.7517H15" stroke="#1E90FF" stroke-width="3" stroke-linecap="round"/>
<path d="M21 9.75171H23" stroke="#1E90FF" stroke-width="3" stroke-linecap="round"/>
<path d="M21 15.7517H23" stroke="#1E90FF" stroke-width="3" stroke-linecap="round"/>
<path d="M29 9.75171H31" stroke="#1E90FF" stroke-width="3" stroke-linecap="round"/>
<path d="M29 15.7517H31" stroke="#1E90FF" stroke-width="3" stroke-linecap="round"/>
<path d="M2 41.7517H42" stroke="#1E90FF" stroke-width="3" stroke-linecap="round" stroke-linejoin="round"/>
<path d="M26.0004 29.7517H28.0004C28.5524 29.7517 29.0104 29.2997 28.9044 28.7577C28.3524 25.9177 25.4714 23.7517 22.0004 23.7517C18.5304 23.7517 15.6484 25.9167 15.0964 28.7577C14.9904 29.2997 15.4484 29.7517 16.0004 29.7517H18.0004" stroke="#1E90FF" stroke-width="3" stroke-linecap="round" stroke-linejoin="round"/>
</svg>
