<svg width="26" height="28" viewBox="0 0 26 28" fill="none" xmlns="http://www.w3.org/2000/svg">
<path d="M9.64224 26.7875V20.0283C9.64224 19.5558 10.1244 19.0737 10.6065 19.0737H14.4634C14.9455 19.0737 15.4276 19.5558 15.4276 20.0379V26.7875C15.4276 27.0432 15.5292 27.2885 15.71 27.4693C15.8908 27.6501 16.1361 27.7517 16.3918 27.7517H24.1056C24.3613 27.7517 24.6066 27.6501 24.7874 27.4693C24.9682 27.2885 25.0698 27.0432 25.0698 26.7875V13.2883C25.0701 13.1616 25.0453 13.0361 24.997 12.919C24.9487 12.8019 24.8778 12.6954 24.7883 12.6057L22.1772 9.99649V3.64611C22.1772 3.39038 22.0756 3.14512 21.8947 2.9643C21.7139 2.78347 21.4687 2.68188 21.2129 2.68188H19.2845C19.0288 2.68188 18.7835 2.78347 18.6027 2.9643C18.4218 3.14512 18.3203 3.39038 18.3203 3.64611V6.13959L13.2176 1.03499C13.128 0.945191 13.0216 0.873949 12.9045 0.82534C12.7873 0.77673 12.6617 0.751709 12.5349 0.751709C12.4081 0.751709 12.2825 0.77673 12.1654 0.82534C12.0482 0.873949 11.9418 0.945191 11.8522 1.03499L0.281555 12.6057C0.192072 12.6954 0.121147 12.8019 0.0728359 12.919C0.024525 13.0361 -0.00022476 13.1616 1.53793e-06 13.2883V26.7875C1.53793e-06 27.0432 0.101589 27.2885 0.282416 27.4693C0.463243 27.6501 0.708497 27.7517 0.964226 27.7517H8.67802C8.93375 27.7517 9.179 27.6501 9.35983 27.4693C9.54066 27.2885 9.64224 27.0432 9.64224 26.7875Z" fill="#363636"/>
</svg>
