<svg width="26" height="35" viewBox="0 0 26 35" fill="none" xmlns="http://www.w3.org/2000/svg">
<path d="M10.4458 14.3313C10.4458 14.0543 10.5559 13.7886 10.7518 13.5927C10.9477 13.3968 11.2134 13.2867 11.4904 13.2867H18.8025C19.0795 13.2867 19.3452 13.3968 19.5411 13.5927C19.737 13.7886 19.8471 14.0543 19.8471 14.3313C19.8471 14.6083 19.737 14.874 19.5411 15.0699C19.3452 15.2658 19.0795 15.3759 18.8025 15.3759H11.4904C11.2134 15.3759 10.9477 15.2658 10.7518 15.0699C10.5559 14.874 10.4458 14.6083 10.4458 14.3313ZM10.4458 20.5988C10.4458 20.3218 10.5559 20.0561 10.7518 19.8602C10.9477 19.6643 11.2134 19.5542 11.4904 19.5542H18.8025C19.0795 19.5542 19.3452 19.6643 19.5411 19.8602C19.737 20.0561 19.8471 20.3218 19.8471 20.5988C19.8471 20.8758 19.737 21.1415 19.5411 21.3374C19.3452 21.5333 19.0795 21.6434 18.8025 21.6434H11.4904C11.2134 21.6434 10.9477 21.5333 10.7518 21.3374C10.5559 21.1415 10.4458 20.8758 10.4458 20.5988ZM10.4458 26.8663C10.4458 26.5893 10.5559 26.3236 10.7518 26.1277C10.9477 25.9318 11.2134 25.8217 11.4904 25.8217H18.8025C19.0795 25.8217 19.3452 25.9318 19.5411 26.1277C19.737 26.3236 19.8471 26.5893 19.8471 26.8663C19.8471 27.1433 19.737 27.409 19.5411 27.6049C19.3452 27.8008 19.0795 27.9109 18.8025 27.9109H11.4904C11.2134 27.9109 10.9477 27.8008 10.7518 27.6049C10.5559 27.409 10.4458 27.1433 10.4458 26.8663ZM8.35667 14.3313C8.35667 14.7469 8.19159 15.1454 7.89774 15.4392C7.60389 15.7331 7.20535 15.8982 6.78979 15.8982C6.37423 15.8982 5.97569 15.7331 5.68184 15.4392C5.388 15.1454 5.22292 14.7469 5.22292 14.3313C5.22292 13.9157 5.388 13.5172 5.68184 13.2233C5.97569 12.9295 6.37423 12.7644 6.78979 12.7644C7.20535 12.7644 7.60389 12.9295 7.89774 13.2233C8.19159 13.5172 8.35667 13.9157 8.35667 14.3313ZM8.35667 20.5988C8.35667 21.0144 8.19159 21.4129 7.89774 21.7067C7.60389 22.0006 7.20535 22.1657 6.78979 22.1657C6.37423 22.1657 5.97569 22.0006 5.68184 21.7067C5.388 21.4129 5.22292 21.0144 5.22292 20.5988C5.22292 20.1832 5.388 19.7847 5.68184 19.4908C5.97569 19.197 6.37423 19.0319 6.78979 19.0319C7.20535 19.0319 7.60389 19.197 7.89774 19.4908C8.19159 19.7847 8.35667 20.1832 8.35667 20.5988ZM6.78979 28.4332C7.20535 28.4332 7.60389 28.2681 7.89774 27.9742C8.19159 27.6804 8.35667 27.2819 8.35667 26.8663C8.35667 26.4507 8.19159 26.0522 7.89774 25.7583C7.60389 25.4645 7.20535 25.2994 6.78979 25.2994C6.37423 25.2994 5.97569 25.4645 5.68184 25.7583C5.388 26.0522 5.22292 26.4507 5.22292 26.8663C5.22292 27.2819 5.388 27.6804 5.68184 27.9742C5.97569 28.2681 6.37423 28.4332 6.78979 28.4332ZM6.44508 2.84088C6.66119 2.22963 7.06155 1.70046 7.59101 1.32629C8.12046 0.952118 8.75293 0.75137 9.40125 0.751709H15.6687C16.3171 0.75137 16.9495 0.952118 17.479 1.32629C18.0084 1.70046 18.4088 2.22963 18.6249 2.84088H21.9362C22.7674 2.84088 23.5645 3.17104 24.1521 3.75873C24.7398 4.34642 25.07 5.1435 25.07 5.97463V31.0446C25.07 31.8757 24.7398 32.6728 24.1521 33.2605C23.5645 33.8482 22.7674 34.1784 21.9362 34.1784H3.13375C2.30263 34.1784 1.50555 33.8482 0.917854 33.2605C0.330162 32.6728 0 31.8757 0 31.0446V5.97463C0 5.1435 0.330162 4.34642 0.917854 3.75873C1.50555 3.17104 2.30263 2.84088 3.13375 2.84088H6.44508ZM9.40125 2.84088C9.12421 2.84088 8.85851 2.95093 8.66262 3.14683C8.46672 3.34273 8.35667 3.60842 8.35667 3.88546C8.35667 4.1625 8.46672 4.42819 8.66262 4.62409C8.85851 4.81999 9.12421 4.93004 9.40125 4.93004H15.6687C15.9458 4.93004 16.2115 4.81999 16.4074 4.62409C16.6033 4.42819 16.7133 4.1625 16.7133 3.88546C16.7133 3.60842 16.6033 3.34273 16.4074 3.14683C16.2115 2.95093 15.9458 2.84088 15.6687 2.84088H9.40125ZM6.44508 4.93004H3.13375C2.85671 4.93004 2.59102 5.0401 2.39512 5.23599C2.19922 5.43189 2.08917 5.69759 2.08917 5.97463V31.0446C2.08917 31.3217 2.19922 31.5874 2.39512 31.7833C2.59102 31.9792 2.85671 32.0892 3.13375 32.0892H21.9362C22.2133 32.0892 22.479 31.9792 22.6749 31.7833C22.8708 31.5874 22.9808 31.3217 22.9808 31.0446V5.97463C22.9808 5.69759 22.8708 5.43189 22.6749 5.23599C22.479 5.0401 22.2133 4.93004 21.9362 4.93004H18.6249C18.4088 5.54129 18.0084 6.07046 17.479 6.44463C16.9495 6.8188 16.3171 7.01955 15.6687 7.01921H9.40125C8.75293 7.01955 8.12046 6.8188 7.59101 6.44463C7.06155 6.07046 6.66119 5.54129 6.44508 4.93004Z" fill="#363636"/>
</svg>
