<svg width="26" height="26" viewBox="0 0 26 26" fill="none" xmlns="http://www.w3.org/2000/svg">
<g clip-path="url(#clip0_11_535)">
<path d="M22.3844 13.3938V12.7133V12.0239L24.1035 10.5197C24.4204 10.2404 24.6283 9.85805 24.6906 9.44025C24.7529 9.02246 24.6654 8.5961 24.4437 8.23654L22.3307 4.65511C22.1737 4.38315 21.9479 4.15727 21.676 4.00012C21.4042 3.84297 21.0957 3.76007 20.7817 3.75975C20.5871 3.75826 20.3936 3.7885 20.2087 3.84929L18.033 4.58348C17.6573 4.33386 17.2655 4.10952 16.8601 3.91196L16.4034 1.65566C16.3216 1.24344 16.0973 0.873154 15.7699 0.609616C15.4425 0.346079 15.0329 0.206083 14.6127 0.214135H10.4224C10.0022 0.206083 9.59261 0.346079 9.26523 0.609616C8.93786 0.873154 8.7136 1.24344 8.63173 1.65566L8.1751 3.91196C7.76675 4.10948 7.37193 4.33381 6.99322 4.58348L4.86227 3.81347C4.67541 3.76478 4.4819 3.74664 4.28924 3.75975C3.97522 3.76007 3.6668 3.84297 3.39493 4.00012C3.12306 4.15727 2.89729 4.38315 2.74028 4.65511L0.627234 8.23654C0.418246 8.59556 0.340587 9.01608 0.407557 9.42607C0.474528 9.83606 0.681961 10.21 0.99433 10.4839L2.68656 12.0328V13.4027L0.99433 14.9069C0.673138 15.1827 0.460031 15.5634 0.392828 15.9813C0.325625 16.3993 0.408673 16.8276 0.627234 17.1901L2.74028 20.7715C2.89729 21.0435 3.12306 21.2694 3.39493 21.4265C3.6668 21.5837 3.97522 21.6666 4.28924 21.6669C4.48385 21.6684 4.6774 21.6381 4.86227 21.5774L7.03799 20.8432C7.41363 21.0928 7.80547 21.3171 8.21091 21.5147L8.66754 23.771C8.74942 24.1832 8.97367 24.5535 9.30105 24.817C9.62842 25.0806 10.0381 25.2206 10.4583 25.2125H14.6843C15.1045 25.2206 15.5142 25.0806 15.8415 24.817C16.1689 24.5535 16.3932 24.1832 16.4751 23.771L16.9317 21.5147C17.34 21.3172 17.7348 21.0928 18.1136 20.8432L20.2803 21.5774C20.4652 21.6381 20.6587 21.6684 20.8534 21.6669C21.1674 21.6666 21.4758 21.5837 21.7477 21.4265C22.0195 21.2694 22.2453 21.0435 22.4023 20.7715L24.4437 17.1901C24.6527 16.8311 24.7304 16.4106 24.6634 16.0006C24.5964 15.5906 24.389 15.2166 24.0766 14.9428L22.3844 13.3938ZM20.7817 19.8762L17.7106 18.8376C16.9917 19.4465 16.1701 19.9225 15.2842 20.2433L14.6485 23.4576H10.4224L9.78674 20.2791C8.90788 19.9492 8.09068 19.474 7.36927 18.8734L4.28924 19.8762L2.1762 16.2947L4.61157 14.1459C4.44602 13.2191 4.44602 12.2702 4.61157 11.3434L2.1762 9.13189L4.28924 5.55046L7.36032 6.58908C8.07923 5.98014 8.90088 5.50413 9.78674 5.18337L10.4224 1.96904H14.6485L15.2842 5.14755C16.1631 5.47742 16.9803 5.95261 17.7017 6.55326L20.7817 5.55046L22.8948 9.13189L20.4594 11.2807C20.625 12.2076 20.625 13.1564 20.4594 14.0832L22.8948 16.2947L20.7817 19.8762Z" fill="#363636"/>
<path d="M12.5352 18.0855C11.4727 18.0855 10.4341 17.7704 9.55063 17.1801C8.66718 16.5898 7.97862 15.7508 7.57202 14.7692C7.16541 13.7875 7.05903 12.7074 7.26631 11.6653C7.4736 10.6232 7.98524 9.66596 8.73655 8.91465C9.48786 8.16335 10.4451 7.6517 11.4872 7.44441C12.5293 7.23713 13.6094 7.34351 14.5911 7.75012C15.5727 8.15672 16.4117 8.84528 17.002 9.72873C17.5923 10.6122 17.9074 11.6508 17.9074 12.7133C17.9146 13.4208 17.7805 14.1226 17.5131 14.7776C17.2456 15.4327 16.8502 16.0277 16.3499 16.528C15.8496 17.0283 15.2546 17.4237 14.5995 17.6912C13.9445 17.9586 13.2427 18.0927 12.5352 18.0855ZM12.5352 9.1319C12.0619 9.12088 11.5912 9.20598 11.1517 9.38206C10.7122 9.55814 10.313 9.82154 9.97823 10.1563C9.64344 10.4911 9.38004 10.8903 9.20396 11.3298C9.02788 11.7693 8.94278 12.24 8.9538 12.7133C8.94278 13.1867 9.02788 13.6573 9.20396 14.0968C9.38004 14.5363 9.64344 14.9355 9.97823 15.2703C10.313 15.6051 10.7122 15.8685 11.1517 16.0446C11.5912 16.2207 12.0619 16.3058 12.5352 16.2948C13.0086 16.3058 13.4792 16.2207 13.9187 16.0446C14.3582 15.8685 14.7574 15.6051 15.0922 15.2703C15.427 14.9355 15.6904 14.5363 15.8665 14.0968C16.0426 13.6573 16.1277 13.1867 16.1167 12.7133C16.1277 12.24 16.0426 11.7693 15.8665 11.3298C15.6904 10.8903 15.427 10.4911 15.0922 10.1563C14.7574 9.82154 14.3582 9.55814 13.9187 9.38206C13.4792 9.20598 13.0086 9.12088 12.5352 9.1319Z" fill="#363636"/>
</g>
<defs>
<clipPath id="clip0_11_535">
<rect width="25.07" height="25.07" fill="white" transform="translate(0 0.178345)"/>
</clipPath>
</defs>
</svg>
